PathFileType	4	(X/Y/Z)	D:\TRACE\v60_Jaco2_6-2-23\JustArmDRS_Motion3_1-v60.trc
DataRate	CameraRate	NumFrames	NumMarkers	Units	OrigDataRate	OrigDataStartFrame	OrigNumFrames
100.00	100.00	      31	9	mm	100.00	1	      8089
Frame#	Time	front left toe			Front right toe			aft left toe			aft right toe			Arm			FL body			FR body			AL Body			AR Body			
		X1	Y1	Z1	X2	Y2	Z2	X3	Y3	Z3	X4	Y4	Z4	X5	Y5	Z5	X6	Y6	Z6	X7	Y7	Z7	X8	Y8	Z8	X9	Y9	Z9	

1	0.000	-204.95113	63.71370	-206.47150	193.36061	51.75189	-142.40524	-292.83081	-47.59489	421.40869	114.55953	-51.64097	436.01663	3.03224	1249.92883	-72.77979	-60.61640	643.34515	-300.93784	96.69150	641.86255	-280.34982	-175.34946	479.58542	622.34448	-24.77075	469.67764	639.99188	
2	0.010	-204.96648	63.70544	-206.46315	193.37192	51.70998	-142.38371	-292.84061	-47.57360	421.41058	114.56032	-51.66343	436.01495	3.08437	1249.92920	-72.74348	-60.57623	643.34253	-300.89697	96.74141	641.85071	-280.30878	-175.39223	479.60815	622.30029	-24.73424	469.67334	640.01105	
3	0.020	-204.96304	63.71298	-206.46289	193.41283	51.79779	-142.37628	-294.22073	-46.90009	421.43347	114.60287	-51.60547	436.00214	3.06572	1249.94177	-72.77091	-60.58461	643.32990	-300.95688	96.70679	641.85065	-280.32916	-175.35419	479.61212	622.33972	-24.92771	469.51993	639.88281	
4	0.030	-204.96567	63.70844	-206.45071	193.44633	51.80370	-142.37111	-294.24594	-46.94114	421.41187	114.59622	-51.58969	435.99661	3.05613	1249.94360	-72.74281	-60.56736	643.34662	-300.96854	96.71933	641.84851	-280.35001	-175.41957	479.62271	622.31097	-24.89965	469.48804	639.88971	
5	0.040	-204.96791	63.71431	-206.46751	193.44124	51.75189	-142.35576	-292.83438	-47.62167	421.41302	114.62995	-51.60872	436.03427	3.06794	1249.95605	-72.77328	-60.75175	643.55054	-301.15964	96.70766	641.88855	-280.32245	-175.39197	479.57245	622.32953	-24.70904	469.65442	639.99591	
6	0.050	-204.97195	63.73033	-206.45247	193.56071	51.77083	-142.28427	-292.84344	-47.55448	421.37054	114.60674	-51.66001	436.05185	3.04839	1249.94507	-72.77341	-60.70465	643.52502	-301.15286	96.69695	641.87946	-280.33408	-175.34486	479.57272	622.32495	-24.70231	469.65958	639.99408	
7	0.060	-204.97058	63.69304	-206.46854	193.47096	51.72324	-142.33521	-292.78174	-47.60356	421.43130	114.59211	-51.60508	436.01300	3.07131	1249.95105	-72.76478	-60.55910	643.33795	-300.92999	96.72804	641.85968	-280.35104	-175.30275	479.51038	622.33295	-24.71876	469.67957	639.99463	
8	0.070	-204.95546	63.70559	-206.46059	193.41289	51.78854	-142.35658	-292.75079	-47.65865	421.39661	114.61382	-51.63972	436.03720	3.09321	1249.95129	-72.74689	-60.75988	643.54626	-301.13702	96.72127	641.87036	-280.33734	-175.32916	479.58618	622.34271	-24.70514	469.66608	640.00031	
9	0.080	-204.95700	63.72950	-206.46402	193.37569	51.75241	-142.37910	-292.79132	-47.62510	421.40991	114.58864	-51.62490	436.01532	3.07840	1249.92639	-72.75343	-60.55964	643.37097	-300.95032	96.71560	641.87543	-280.30872	-175.32941	479.55612	622.35510	-24.73370	469.65302	639.98889	
10	0.090	-204.96524	63.71423	-206.45178	193.42563	51.78625	-142.37956	-293.73087	-46.96178	421.31467	114.58757	-51.62223	436.02533	3.07209	1249.93567	-72.77861	-60.53047	643.34235	-300.92554	96.75629	641.86499	-280.31967	-175.32100	479.58279	622.31201	-24.90941	469.50125	639.89264	
11	0.100	-204.96198	63.69246	-206.45267	193.44122	51.73275	-142.35670	-293.72238	-46.96484	421.30502	114.60567	-51.63030	436.01419	3.05716	1249.93237	-72.79952	-60.72614	643.54907	-301.13367	96.69986	641.88593	-280.33350	-175.34741	479.58401	622.33124	-24.92164	469.50238	639.87885	
12	0.110	-204.94789	63.68494	-206.44955	193.46829	51.74723	-142.28487	-292.84375	-47.58170	421.41367	114.58485	-51.64266	436.02066	3.10018	1249.93701	-72.76373	-60.73499	643.55115	-301.16299	96.75628	641.87335	-280.30460	-175.31793	479.55301	622.34985	-24.91056	469.50330	639.87506	
13	0.120	-204.95287	63.69329	-206.45091	193.48344	51.77100	-142.30411	-292.83295	-47.58766	421.41299	114.60465	-51.60577	436.01608	3.08314	1249.92969	-72.72816	-60.53173	643.32935	-300.95361	96.73527	641.86798	-280.31729	-175.33604	479.57001	622.32617	-24.85281	469.48642	639.87738	
14	0.130	-204.94023	63.72835	-206.45311	193.43974	51.76160	-142.34384	-292.82465	-47.58321	421.38907	114.62188	-51.60680	436.05136	3.07357	1249.93054	-72.78306	-60.55457	643.32172	-300.94476	96.75447	641.89185	-280.30466	-175.36006	479.58502	622.38348	-24.72738	469.66864	639.99927	
15	0.140	-204.96228	63.72852	-206.46005	193.51930	51.77029	-142.28775	-294.27817	-46.93898	421.47412	114.64204	-51.60288	436.05960	3.06361	1249.92969	-72.78468	-60.55060	643.33008	-300.96317	96.71926	641.90186	-280.31775	-175.36230	479.62683	622.30536	-24.88890	469.49521	639.87085	
16	0.150	-204.96400	63.72593	-206.43204	193.43103	51.78201	-142.34172	-292.81848	-47.58286	421.40198	114.58051	-51.61523	436.01883	3.04317	1249.94751	-72.79160	-60.55323	643.33789	-300.94580	96.75993	641.87256	-280.34018	-175.32669	479.60568	622.33160	-24.90318	469.49438	639.89337	
17	0.160	-204.95302	63.70756	-206.45471	193.41493	51.73076	-142.35008	-292.81058	-47.58561	421.39752	114.60866	-51.61927	436.02863	3.09375	1249.96118	-72.79327	-60.74369	643.52747	-301.12469	96.74029	641.87872	-280.31390	-175.33812	479.57266	622.29175	-24.93334	469.48401	639.88745	
18	0.170	-204.95972	63.70915	-206.44147	193.33334	51.72577	-142.41728	-292.85657	-47.56876	421.41428	114.55748	-51.59602	435.99127	3.07624	1249.92029	-72.79434	-60.51348	643.30457	-300.93317	96.78118	641.85626	-280.30872	-175.35574	479.58920	622.32269	-24.87906	469.52768	639.87469	
19	0.180	-204.96518	63.69189	-206.45186	193.49226	51.78133	-142.31041	-292.73593	-47.61549	421.40662	114.62496	-51.62106	436.01675	3.08687	1249.90967	-72.82949	-60.51770	643.29193	-300.94229	96.79948	641.85931	-280.31250	-175.35869	479.59802	622.30170	-24.69604	469.67114	640.00140	
20	0.190	-204.96634	63.71801	-206.46996	193.36470	51.76884	-142.38669	-294.25302	-46.92187	421.43237	114.62022	-51.62968	436.05612	3.09150	1249.93042	-72.81369	-60.51763	643.31842	-300.96823	96.79504	641.84692	-280.29358	-175.34650	479.63223	622.29596	-24.73686	469.64771	639.98499	
21	0.200	-204.96149	63.69559	-206.45435	193.43958	51.79100	-142.34885	-292.84927	-47.58138	421.40900	114.62757	-51.61137	436.04456	3.09070	1249.92676	-72.83701	-60.49676	643.30231	-300.90521	96.79918	641.79486	-280.32059	-175.39005	479.66010	622.33575	-24.68176	469.65112	639.98761	
22	0.210	-204.96974	63.70270	-206.46982	193.47569	51.80546	-142.33211	-292.78659	-47.60646	421.41275	114.62370	-51.63325	436.06644	3.12501	1249.91528	-72.82040	-60.50087	643.27667	-300.96158	96.82565	641.81165	-280.31918	-175.38663	479.56857	622.30377	-24.71246	469.66284	639.97699	
23	0.220	-204.94458	63.68504	-206.45164	193.36024	51.79530	-142.38806	-292.78580	-47.60584	421.43283	114.60941	-51.61423	436.05560	3.14145	1249.89099	-72.82874	-60.66201	643.47388	-301.16519	96.79331	641.79883	-280.32043	-175.37376	479.61545	622.36877	-24.90784	469.48660	639.88080	
24	0.230	-204.96931	63.70958	-206.47482	193.42087	51.76153	-142.34618	-292.78439	-47.65681	421.40799	114.61858	-51.63180	436.04297	3.12189	1249.89832	-72.84109	-60.65274	643.46979	-301.17548	96.80901	641.79395	-280.32422	-175.30510	479.57727	622.28107	-24.91494	469.48834	639.87787	
25	0.240	-204.96016	63.69141	-206.43604	193.46840	51.76181	-142.33672	-292.80829	-47.63087	421.41467	114.58636	-51.63975	436.00873	3.16729	1249.90942	-72.80870	-60.45169	643.25616	-300.94070	96.84156	641.82886	-280.30051	-175.30423	479.59875	622.32275	-24.87553	469.49997	639.89221	
26	0.250	-204.96620	63.70724	-206.46428	193.45020	51.76296	-142.36198	-292.73001	-47.65375	421.38126	114.65910	-51.63223	436.05829	3.14596	1249.89368	-72.82781	-60.62706	643.47107	-301.18567	96.88754	641.81317	-280.30722	-175.36694	479.62988	622.34827	-24.69263	469.67450	640.00494	
27	0.260	-204.96794	63.71507	-206.47360	193.45082	51.80982	-142.32657	-292.84415	-47.54468	421.38620	114.62903	-51.61261	436.06555	3.18961	1249.90710	-72.80290	-60.45566	643.28558	-300.95972	96.87814	641.84509	-280.32468	-175.33792	479.61917	622.30060	-24.85323	469.51825	639.87860	
28	0.270	-204.94946	63.71070	-206.45909	193.43884	51.68498	-142.32751	-292.78195	-47.59382	421.39307	114.60995	-51.64223	436.04053	3.17817	1249.92139	-72.83808	-60.39827	643.27240	-300.90356	96.88968	641.83057	-280.30328	-175.30170	479.58099	622.31042	-24.70607	469.64148	639.99896	
29	0.280	-204.94913	63.73349	-206.45587	193.37746	51.74145	-142.38344	-292.85690	-47.58555	421.40381	114.59111	-51.63479	436.07111	3.20119	1249.90796	-72.78983	-60.38143	643.26440	-300.92188	96.86684	641.81799	-280.30771	-175.32834	479.56241	622.32062	-24.86033	469.49429	639.87592	
30	0.290	-204.97459	63.71316	-206.45097	193.32738	51.72741	-142.41785	-292.79282	-47.57045	421.36700	114.60843	-51.65502	436.06332	3.21967	1249.89795	-72.81860	-60.60135	643.49176	-301.18024	96.89765	641.82117	-280.31631	-175.34338	479.62558	622.35791	-24.68131	469.66052	640.00055	
31	0.300	-204.96118	63.71147	-206.45201	193.42885	51.80973	-142.36343	-292.73785	-47.62730	421.38776	114.63931	-51.62048	436.07010	3.22180	1249.90430	-72.83472	-60.59009	643.48004	-301.18466	96.91379	641.80035	-280.31467	-175.37819	479.63947	622.32959	-24.86063	469.50885	639.90521	
